<svg width="24" height="24" viewBox="0 0 24 24" fill="none" xmlns="http://www.w3.org/2000/svg">
<path id="Vector" d="M12 24C13.8921 24 15.427 22.657 15.427 21H8.57305C8.57305 22.657 10.1079 24 12 24ZM23.5387 16.9823C22.5037 16.0092 20.5671 14.5453 20.5671 9.75C20.5671 6.10781 17.6486 3.19219 13.7132 2.47688V1.5C13.7132 0.671719 12.9461 0 12 0C11.0539 0 10.2868 0.671719 10.2868 1.5V2.47688C6.35145 3.19219 3.43288 6.10781 3.43288 9.75C3.43288 14.5453 1.49628 16.0092 0.461286 16.9823C0.139858 17.2847 -0.00264152 17.6461 3.70385e-05 18C0.00592988 18.7687 0.695392 19.5 1.71967 19.5H22.2803C23.3046 19.5 23.9946 18.7687 24 18C24.0026 17.6461 23.8601 17.2842 23.5387 16.9823Z" fill="white"/>
</svg>
