<svg width="30" height="30" viewBox="0 0 30 30" fill="none" xmlns="http://www.w3.org/2000/svg">
<g id="Instagram  icon">
<circle id="Ellipse 19" cx="15" cy="15" r="15" fill="white"/>
<path id="Vector" d="M14.9677 11.5989C13.1044 11.5989 11.6014 13.1018 11.6014 14.9651C11.6014 16.8284 13.1044 18.3313 14.9677 18.3313C16.8309 18.3313 18.3339 16.8284 18.3339 14.9651C18.3339 13.1018 16.8309 11.5989 14.9677 11.5989ZM14.9677 17.1536C13.7635 17.1536 12.7792 16.1721 12.7792 14.9651C12.7792 13.7581 13.7606 12.7766 14.9677 12.7766C16.1747 12.7766 17.1561 13.7581 17.1561 14.9651C17.1561 16.1721 16.1718 17.1536 14.9677 17.1536ZM19.2567 11.4612C19.2567 11.8977 18.9052 12.2463 18.4716 12.2463C18.035 12.2463 17.6864 11.8948 17.6864 11.4612C17.6864 11.0276 18.038 10.676 18.4716 10.676C18.9052 10.676 19.2567 11.0276 19.2567 11.4612ZM21.4862 12.2581C21.4364 11.2063 21.1962 10.2747 20.4257 9.50708C19.6581 8.7395 18.7264 8.49927 17.6747 8.44653C16.5907 8.38501 13.3417 8.38501 12.2577 8.44653C11.2089 8.49634 10.2772 8.73657 9.50671 9.50415C8.73621 10.2717 8.4989 11.2034 8.44617 12.2551C8.38464 13.3391 8.38464 16.5881 8.44617 17.6721C8.49597 18.7239 8.73621 19.6555 9.50671 20.4231C10.2772 21.1907 11.2059 21.4309 12.2577 21.4836C13.3417 21.5452 16.5907 21.5452 17.6747 21.4836C18.7264 21.4338 19.6581 21.1936 20.4257 20.4231C21.1932 19.6555 21.4335 18.7239 21.4862 17.6721C21.5477 16.5881 21.5477 13.342 21.4862 12.2581ZM20.0858 18.8352C19.8573 19.4094 19.4149 19.8518 18.8378 20.0833C17.9735 20.426 15.9227 20.3469 14.9677 20.3469C14.0126 20.3469 11.9589 20.4231 11.0975 20.0833C10.5233 19.8547 10.0809 19.4124 9.84949 18.8352C9.50671 17.9709 9.58582 15.9202 9.58582 14.9651C9.58582 14.01 9.50964 11.9563 9.84949 11.095C10.078 10.5208 10.5204 10.0784 11.0975 9.84692C11.9618 9.50415 14.0126 9.58325 14.9677 9.58325C15.9227 9.58325 17.9764 9.50708 18.8378 9.84692C19.412 10.0754 19.8544 10.5178 20.0858 11.095C20.4286 11.9592 20.3495 14.01 20.3495 14.9651C20.3495 15.9202 20.4286 17.9739 20.0858 18.8352Z" fill="#2E2E2D"/>
</g>
</svg>
