<svg width="30" height="30" viewBox="0 0 30 30" fill="none" xmlns="http://www.w3.org/2000/svg">
<g id="Linkedin  icon">
<circle id="Ellipse 20" cx="15" cy="15" r="15" fill="white"/>
<path id="Vector" d="M11.3379 21.5251H8.61682V12.7624H11.3379V21.5251ZM9.9759 11.5671C9.10579 11.5671 8.40002 10.8464 8.40002 9.97627C8.40002 9.55832 8.56605 9.15749 8.86159 8.86195C9.15712 8.56642 9.55795 8.40039 9.9759 8.40039C10.3939 8.40039 10.7947 8.56642 11.0902 8.86195C11.3858 9.15749 11.5518 9.55832 11.5518 9.97627C11.5518 10.8464 10.8457 11.5671 9.9759 11.5671ZM21.5221 21.5251H18.8069V17.2595C18.8069 16.2429 18.7864 14.9392 17.3921 14.9392C15.9774 14.9392 15.7606 16.0437 15.7606 17.1862V21.5251H13.0424V12.7624H15.6522V13.9577H15.6903C16.0535 13.2692 16.9409 12.5427 18.2649 12.5427C21.0188 12.5427 21.525 14.3562 21.525 16.7116V21.5251H21.5221Z" fill="#2E2E2D"/>
</g>
</svg>
