<svg width="58" height="10" viewBox="0 0 58 10" fill="none" xmlns="http://www.w3.org/2000/svg">
<g id="Group 4">
<path id="Vector" d="M4.46355 0.347861L3.24299 2.93348L0.512158 3.34944C0.0224388 3.42365 -0.173823 4.05443 0.181317 4.41572L2.15701 6.42719L1.68973 9.26863C1.60561 9.78224 2.12337 10.167 2.55701 9.92675L5 8.58512L7.44299 9.92675C7.87663 10.165 8.39439 9.78224 8.31028 9.26863L7.84299 6.42719L9.81868 4.41572C10.1738 4.05443 9.97756 3.42365 9.48784 3.34944L6.75701 2.93348L5.53645 0.347861C5.31776 -0.11302 4.68411 -0.118878 4.46355 0.347861Z" fill="#EECB2B"/>
<path id="Vector_2" d="M16.4636 0.347861L15.243 2.93348L12.5122 3.34944C12.0224 3.42365 11.8262 4.05443 12.1813 4.41572L14.157 6.42719L13.6897 9.26863C13.6056 9.78224 14.1234 10.167 14.557 9.92675L17 8.58512L19.443 9.92675C19.8766 10.165 20.3944 9.78224 20.3103 9.26863L19.843 6.42719L21.8187 4.41572C22.1738 4.05443 21.9776 3.42365 21.4878 3.34944L18.757 2.93348L17.5364 0.347861C17.3178 -0.11302 16.6841 -0.118878 16.4636 0.347861Z" fill="#EECB2B"/>
<path id="Vector_3" d="M28.4636 0.347861L27.243 2.93348L24.5122 3.34944C24.0224 3.42365 23.8262 4.05443 24.1813 4.41572L26.157 6.42719L25.6897 9.26863C25.6056 9.78224 26.1234 10.167 26.557 9.92675L29 8.58512L31.443 9.92675C31.8766 10.165 32.3944 9.78224 32.3103 9.26863L31.843 6.42719L33.8187 4.41572C34.1738 4.05443 33.9776 3.42365 33.4878 3.34944L30.757 2.93348L29.5364 0.347861C29.3178 -0.11302 28.6841 -0.118878 28.4636 0.347861Z" fill="#EECB2B"/>
<path id="Vector_4" d="M40.4636 0.347861L39.243 2.93348L36.5122 3.34944C36.0224 3.42365 35.8262 4.05443 36.1813 4.41572L38.157 6.42719L37.6897 9.26863C37.6056 9.78224 38.1234 10.167 38.557 9.92675L41 8.58512L43.443 9.92675C43.8766 10.165 44.3944 9.78224 44.3103 9.26863L43.843 6.42719L45.8187 4.41572C46.1738 4.05443 45.9776 3.42365 45.4878 3.34944L42.757 2.93348L41.5364 0.347861C41.3178 -0.11302 40.6841 -0.118878 40.4636 0.347861Z" fill="#EECB2B"/>
<path id="Vector_5" d="M52.4636 0.347861L51.243 2.93348L48.5122 3.34944C48.0224 3.42365 47.8262 4.05443 48.1813 4.41572L50.157 6.42719L49.6897 9.26863C49.6056 9.78224 50.1234 10.167 50.557 9.92675L53 8.58512L55.443 9.92675C55.8766 10.165 56.3944 9.78224 56.3103 9.26863L55.843 6.42719L57.8187 4.41572C58.1738 4.05443 57.9776 3.42365 57.4878 3.34944L54.757 2.93348L53.5364 0.347861C53.3178 -0.11302 52.6841 -0.118878 52.4636 0.347861Z" fill="#EECB2B"/>
</g>
</svg>
