<svg width="30" height="30" viewBox="0 0 30 30" fill="none" xmlns="http://www.w3.org/2000/svg">
<g id="Youtube icon">
<circle id="Ellipse 22" cx="15" cy="15" r="15" fill="white"/>
<path id="Vector" d="M21.7251 11.7649C21.5615 11.149 21.0796 10.6639 20.4677 10.4993C19.3586 10.2002 14.9112 10.2002 14.9112 10.2002C14.9112 10.2002 10.4638 10.2002 9.35463 10.4993C8.74273 10.6639 8.2608 11.149 8.09724 11.7649C7.80005 12.8812 7.80005 15.2103 7.80005 15.2103C7.80005 15.2103 7.80005 17.5394 8.09724 18.6557C8.2608 19.2716 8.74273 19.7365 9.35463 19.9011C10.4638 20.2002 14.9112 20.2002 14.9112 20.2002C14.9112 20.2002 19.3586 20.2002 20.4677 19.9011C21.0796 19.7365 21.5615 19.2716 21.7251 18.6557C22.0223 17.5394 22.0223 15.2103 22.0223 15.2103C22.0223 15.2103 22.0223 12.8812 21.7251 11.7649ZM13.4566 17.325V13.0956L17.1738 15.2104L13.4566 17.325Z" fill="#2E2E2D"/>
</g>
</svg>
